<svg width="512" height="512" viewBox="0 0 512 512" fill="none" xmlns="http://www.w3.org/2000/svg">
  <rect width="512" height="512" rx="112" fill="#0F172A"/>
  <rect x="72" y="72" width="368" height="368" rx="72" fill="#F8FAFC"/>
  <rect x="112" y="112" width="96" height="96" rx="24" fill="#0F172A"/>
  <rect x="304" y="112" width="96" height="96" rx="24" fill="#0F172A"/>
  <rect x="112" y="304" width="96" height="96" rx="24" fill="#0F172A"/>
  <rect x="144" y="144" width="32" height="32" rx="8" fill="#F8FAFC"/>
  <rect x="336" y="144" width="32" height="32" rx="8" fill="#F8FAFC"/>
  <rect x="144" y="336" width="32" height="32" rx="8" fill="#F8FAFC"/>
  <rect x="256" y="256" width="48" height="48" rx="12" fill="#2563EB"/>
  <rect x="320" y="256" width="32" height="32" rx="8" fill="#0F172A"/>
  <rect x="368" y="256" width="32" height="32" rx="8" fill="#0F172A"/>
  <rect x="256" y="320" width="32" height="32" rx="8" fill="#0F172A"/>
  <rect x="320" y="336" width="80" height="32" rx="8" fill="#0F172A"/>
</svg>
